<svg xmlns="http://www.w3.org/2000/svg" xmlns:xlink="http://www.w3.org/1999/xlink" width="500" zoomAndPan="magnify" viewBox="0 0 375 374.999991" height="500" preserveAspectRatio="xMidYMid meet" version="1.0"><defs><g/><clipPath id="7f9af8325e"><rect x="0" width="167" y="0" height="32"/></clipPath><clipPath id="a16286c990"><path d="M 115 181.160156 L 139 181.160156 L 139 205 L 115 205 Z M 115 181.160156 " clip-rule="nonzero"/></clipPath><clipPath id="80b29ffc6e"><path d="M 236 181.160156 L 260 181.160156 L 260 205 L 236 205 Z M 236 181.160156 " clip-rule="nonzero"/></clipPath></defs><rect x="-37.5" width="450" fill="#ffffff" y="-37.499999" height="449.999989" fill-opacity="1"/><rect x="-37.5" width="450" fill="#ffffff" y="-37.499999" height="449.999989" fill-opacity="1"/><path fill="#51bbbf" d="M 156.503906 130.863281 C 149.476562 116.691406 134.800781 115.585938 124.609375 122.074219 C 116.269531 127.363281 112.5625 137.617188 115.253906 147.121094 C 116.925781 153.070312 119.316406 158.691406 122.308594 163.949219 C 126.402344 171.125 132.621094 176.863281 140.09375 180.390625 C 148.433594 184.367188 156.203125 186.371094 163.136719 186.371094 C 171.65625 186.371094 178.742188 183.289062 184.78125 178.386719 C 171.808594 165.863281 163.855469 145.71875 156.503906 130.863281 Z M 156.503906 130.863281 " fill-opacity="1" fill-rule="nonzero"/><path fill="#0085c2" d="M 250.449219 122.074219 C 240.257812 115.585938 225.550781 116.664062 218.558594 130.863281 C 204.417969 159.316406 188.1875 207.203125 138.539062 183.621094 C 151.691406 194.949219 168.816406 201.792969 187.53125 201.792969 C 221.875 201.792969 250.839844 178.71875 259.777344 147.242188 C 262.4375 137.738281 258.789062 127.363281 250.449219 122.074219 Z M 250.449219 122.074219 " fill-opacity="1" fill-rule="nonzero"/><g transform="matrix(1, 0, 0, 1, 106, 215)"><g clip-path="url(#7f9af8325e)"><g fill="#0085c2" fill-opacity="1"><g transform="translate(0.556901, 24.524963)"><g><path d="M 27.390625 -0.6875 C 27.410156 -0.4375 27.359375 -0.253906 27.234375 -0.140625 C 27.117188 -0.0351562 26.953125 0.015625 26.734375 0.015625 L 23.796875 0.015625 C 23.578125 0.015625 23.410156 -0.03125 23.296875 -0.125 C 23.179688 -0.226562 23.113281 -0.398438 23.09375 -0.640625 L 22 -11.875 L 15.171875 -0.265625 C 15.046875 -0.0546875 14.9375 0.09375 14.84375 0.1875 C 14.75 0.28125 14.613281 0.328125 14.4375 0.328125 L 14.421875 0.328125 C 14.222656 0.328125 14.082031 0.28125 14 0.1875 C 13.914062 0.09375 13.800781 -0.0546875 13.65625 -0.265625 L 6.84375 -11.859375 L 5.734375 -0.640625 C 5.703125 -0.398438 5.628906 -0.226562 5.515625 -0.125 C 5.410156 -0.03125 5.253906 0.015625 5.046875 0.015625 L 2.109375 0.015625 C 1.878906 0.015625 1.703125 -0.0351562 1.578125 -0.140625 C 1.453125 -0.253906 1.40625 -0.4375 1.4375 -0.6875 L 3.671875 -22.796875 C 3.691406 -23.171875 3.878906 -23.359375 4.234375 -23.359375 L 4.3125 -23.359375 C 4.507812 -23.359375 4.640625 -23.304688 4.703125 -23.203125 C 4.773438 -23.109375 4.863281 -22.984375 4.96875 -22.828125 L 14.421875 -6.78125 L 23.875 -22.828125 C 23.96875 -22.984375 24.050781 -23.109375 24.125 -23.203125 C 24.195312 -23.304688 24.328125 -23.359375 24.515625 -23.359375 L 24.578125 -23.359375 C 24.921875 -23.359375 25.117188 -23.171875 25.171875 -22.796875 Z M 27.390625 -0.6875 "/></g></g></g><g fill="#0085c2" fill-opacity="1"><g transform="translate(32.477122, 24.524963)"><g><path d="M 22.28125 -0.734375 C 22.375 -0.515625 22.375 -0.332031 22.28125 -0.1875 C 22.195312 -0.0390625 22.03125 0.03125 21.78125 0.03125 L 18.515625 0.03125 C 18.347656 0.03125 18.195312 -0.0234375 18.0625 -0.140625 C 17.925781 -0.253906 17.820312 -0.394531 17.75 -0.5625 L 16.828125 -2.796875 L 6.25 -2.796875 L 5.328125 -0.578125 C 5.253906 -0.410156 5.148438 -0.269531 5.015625 -0.15625 C 4.890625 -0.0390625 4.734375 0.015625 4.546875 0.015625 L 1.296875 0.015625 C 1.046875 0.015625 0.875 -0.0507812 0.78125 -0.1875 C 0.6875 -0.332031 0.6875 -0.519531 0.78125 -0.75 L 10.578125 -22.71875 C 10.660156 -22.894531 10.78125 -23.035156 10.9375 -23.140625 C 11.09375 -23.253906 11.253906 -23.3125 11.421875 -23.3125 L 11.609375 -23.3125 C 11.796875 -23.3125 11.960938 -23.253906 12.109375 -23.140625 C 12.253906 -23.023438 12.367188 -22.878906 12.453125 -22.703125 Z M 7.75 -6.46875 L 15.3125 -6.46875 L 11.546875 -15.625 Z M 7.75 -6.46875 "/></g></g></g><g fill="#0085c2" fill-opacity="1"><g transform="translate(58.642754, 24.524963)"><g><path d="M 20.984375 -0.796875 C 21.148438 -0.566406 21.1875 -0.375 21.09375 -0.21875 C 21.007812 -0.0625 20.832031 0.015625 20.5625 0.015625 L 16.875 0.015625 C 16.71875 0.015625 16.566406 -0.0234375 16.421875 -0.109375 C 16.273438 -0.203125 16.144531 -0.34375 16.03125 -0.53125 L 10.921875 -8.65625 L 5.828125 -0.546875 C 5.710938 -0.359375 5.578125 -0.21875 5.421875 -0.125 C 5.273438 -0.03125 5.132812 0.015625 5 0.015625 L 1.265625 0.015625 C 1.003906 0.015625 0.832031 -0.0625 0.75 -0.21875 C 0.664062 -0.375 0.703125 -0.566406 0.859375 -0.796875 L 8.265625 -11.9375 L 1.4375 -22.203125 C 1.28125 -22.429688 1.238281 -22.625 1.3125 -22.78125 C 1.382812 -22.945312 1.546875 -23.03125 1.796875 -23.03125 L 5.578125 -23.03125 C 5.703125 -23.03125 5.84375 -22.976562 6 -22.875 C 6.15625 -22.78125 6.285156 -22.644531 6.390625 -22.46875 L 10.921875 -15.1875 L 15.453125 -22.46875 C 15.554688 -22.644531 15.6875 -22.78125 15.84375 -22.875 C 16 -22.976562 16.144531 -23.03125 16.28125 -23.03125 L 20.0625 -23.03125 C 20.3125 -23.03125 20.46875 -22.953125 20.53125 -22.796875 C 20.601562 -22.640625 20.566406 -22.445312 20.421875 -22.21875 L 13.78125 -11.953125 Z M 20.984375 -0.796875 "/></g></g></g><g fill="#0085c2" fill-opacity="1"><g transform="translate(83.596895, 24.524963)"><g><path d="M 1.359375 -11.46875 C 1.359375 -12.800781 1.554688 -14.0625 1.953125 -15.25 C 2.347656 -16.445312 2.90625 -17.535156 3.625 -18.515625 C 4.351562 -19.503906 5.210938 -20.359375 6.203125 -21.078125 C 7.191406 -21.804688 8.285156 -22.367188 9.484375 -22.765625 C 10.691406 -23.160156 11.960938 -23.359375 13.296875 -23.359375 C 14.628906 -23.359375 15.894531 -23.160156 17.09375 -22.765625 C 18.300781 -22.367188 19.398438 -21.804688 20.390625 -21.078125 C 21.378906 -20.359375 22.234375 -19.503906 22.953125 -18.515625 C 23.679688 -17.535156 24.242188 -16.445312 24.640625 -15.25 C 25.035156 -14.0625 25.234375 -12.800781 25.234375 -11.46875 C 25.234375 -10.132812 25.035156 -8.867188 24.640625 -7.671875 C 24.242188 -6.484375 23.679688 -5.398438 22.953125 -4.421875 C 22.234375 -3.441406 21.378906 -2.59375 20.390625 -1.875 C 19.398438 -1.15625 18.300781 -0.601562 17.09375 -0.21875 C 15.894531 0.164062 14.628906 0.359375 13.296875 0.359375 C 11.960938 0.359375 10.691406 0.164062 9.484375 -0.21875 C 8.285156 -0.601562 7.191406 -1.15625 6.203125 -1.875 C 5.210938 -2.59375 4.351562 -3.441406 3.625 -4.421875 C 2.90625 -5.398438 2.347656 -6.484375 1.953125 -7.671875 C 1.554688 -8.867188 1.359375 -10.132812 1.359375 -11.46875 Z M 5.640625 -11.46875 C 5.640625 -10.394531 5.832031 -9.398438 6.21875 -8.484375 C 6.601562 -7.578125 7.144531 -6.78125 7.84375 -6.09375 C 8.550781 -5.40625 9.367188 -4.867188 10.296875 -4.484375 C 11.222656 -4.097656 12.222656 -3.90625 13.296875 -3.90625 C 14.378906 -3.90625 15.378906 -4.097656 16.296875 -4.484375 C 17.222656 -4.867188 18.035156 -5.40625 18.734375 -6.09375 C 19.441406 -6.78125 19.988281 -7.578125 20.375 -8.484375 C 20.757812 -9.398438 20.953125 -10.394531 20.953125 -11.46875 C 20.953125 -12.539062 20.753906 -13.539062 20.359375 -14.46875 C 19.972656 -15.394531 19.429688 -16.203125 18.734375 -16.890625 C 18.035156 -17.585938 17.222656 -18.128906 16.296875 -18.515625 C 15.367188 -18.898438 14.367188 -19.09375 13.296875 -19.09375 C 12.222656 -19.09375 11.222656 -18.898438 10.296875 -18.515625 C 9.367188 -18.128906 8.554688 -17.585938 7.859375 -16.890625 C 7.160156 -16.203125 6.613281 -15.394531 6.21875 -14.46875 C 5.832031 -13.539062 5.640625 -12.539062 5.640625 -11.46875 Z M 5.640625 -11.46875 "/></g></g></g><g fill="#0085c2" fill-opacity="1"><g transform="translate(113.290992, 24.524963)"><g><path d="M 17.1875 -6.796875 L 20.28125 -0.765625 C 20.382812 -0.546875 20.394531 -0.359375 20.3125 -0.203125 C 20.238281 -0.0546875 20.082031 0.015625 19.84375 0.015625 L 16.5 0.015625 C 16.363281 0.015625 16.222656 -0.0351562 16.078125 -0.140625 C 15.929688 -0.242188 15.816406 -0.378906 15.734375 -0.546875 L 13.359375 -5.421875 C 13.109375 -5.378906 12.847656 -5.347656 12.578125 -5.328125 C 12.316406 -5.316406 12.050781 -5.3125 11.78125 -5.3125 L 7.03125 -5.3125 L 7.03125 -0.65625 C 7.03125 -0.445312 6.960938 -0.28125 6.828125 -0.15625 C 6.703125 -0.0390625 6.535156 0.015625 6.328125 0.015625 L 3.421875 0.015625 C 3.234375 0.015625 3.070312 -0.0390625 2.9375 -0.15625 C 2.800781 -0.28125 2.734375 -0.445312 2.734375 -0.65625 L 2.734375 -22.359375 C 2.734375 -22.546875 2.800781 -22.695312 2.9375 -22.8125 C 3.070312 -22.9375 3.234375 -23 3.421875 -23 L 4.1875 -23 C 4.625 -23 5.054688 -23 5.484375 -23 C 5.921875 -23 6.226562 -23 6.40625 -23 L 11.78125 -23 C 13.132812 -23 14.375 -22.78125 15.5 -22.34375 C 16.632812 -21.90625 17.617188 -21.285156 18.453125 -20.484375 C 19.285156 -19.691406 19.929688 -18.75 20.390625 -17.65625 C 20.847656 -16.5625 21.078125 -15.367188 21.078125 -14.078125 C 21.078125 -12.515625 20.726562 -11.101562 20.03125 -9.84375 C 19.332031 -8.59375 18.382812 -7.578125 17.1875 -6.796875 Z M 11.515625 -8.890625 C 12.535156 -8.890625 13.445312 -9.109375 14.25 -9.546875 C 15.050781 -9.992188 15.675781 -10.609375 16.125 -11.390625 C 16.582031 -12.179688 16.8125 -13.085938 16.8125 -14.109375 C 16.8125 -14.859375 16.675781 -15.546875 16.40625 -16.171875 C 16.132812 -16.796875 15.757812 -17.335938 15.28125 -17.796875 C 14.8125 -18.265625 14.253906 -18.625 13.609375 -18.875 C 12.960938 -19.132812 12.265625 -19.265625 11.515625 -19.265625 L 7.03125 -19.265625 L 7.03125 -8.890625 Z M 11.515625 -8.890625 "/></g></g></g><g fill="#0085c2" fill-opacity="1"><g transform="translate(139.365764, 24.524963)"><g><path d="M 22.28125 -0.734375 C 22.375 -0.515625 22.375 -0.332031 22.28125 -0.1875 C 22.195312 -0.0390625 22.03125 0.03125 21.78125 0.03125 L 18.515625 0.03125 C 18.347656 0.03125 18.195312 -0.0234375 18.0625 -0.140625 C 17.925781 -0.253906 17.820312 -0.394531 17.75 -0.5625 L 16.828125 -2.796875 L 6.25 -2.796875 L 5.328125 -0.578125 C 5.253906 -0.410156 5.148438 -0.269531 5.015625 -0.15625 C 4.890625 -0.0390625 4.734375 0.015625 4.546875 0.015625 L 1.296875 0.015625 C 1.046875 0.015625 0.875 -0.0507812 0.78125 -0.1875 C 0.6875 -0.332031 0.6875 -0.519531 0.78125 -0.75 L 10.578125 -22.71875 C 10.660156 -22.894531 10.78125 -23.035156 10.9375 -23.140625 C 11.09375 -23.253906 11.253906 -23.3125 11.421875 -23.3125 L 11.609375 -23.3125 C 11.796875 -23.3125 11.960938 -23.253906 12.109375 -23.140625 C 12.253906 -23.023438 12.367188 -22.878906 12.453125 -22.703125 Z M 7.75 -6.46875 L 15.3125 -6.46875 L 11.546875 -15.625 Z M 7.75 -6.46875 "/></g></g></g></g></g><g fill="#000000" fill-opacity="1"><g transform="translate(119.518641, 256.52641)"><g><path d="M 0.265625 -5.984375 L 0.265625 -6.703125 C 0.265625 -6.835938 0.332031 -6.90625 0.46875 -6.90625 L 5.203125 -6.90625 C 5.265625 -6.90625 5.3125 -6.882812 5.34375 -6.84375 C 5.375 -6.8125 5.390625 -6.765625 5.390625 -6.703125 L 5.390625 -5.984375 C 5.390625 -5.847656 5.328125 -5.78125 5.203125 -5.78125 L 3.46875 -5.78125 L 3.46875 -0.203125 C 3.46875 -0.0664062 3.398438 0 3.265625 0 L 2.390625 0 C 2.253906 0 2.1875 -0.0664062 2.1875 -0.203125 L 2.1875 -5.78125 L 0.46875 -5.78125 C 0.40625 -5.78125 0.351562 -5.796875 0.3125 -5.828125 C 0.28125 -5.867188 0.265625 -5.921875 0.265625 -5.984375 Z M 0.265625 -5.984375 "/></g></g></g><g fill="#000000" fill-opacity="1"><g transform="translate(132.626187, 256.52641)"><g><path d="M 5.828125 -1.21875 C 5.910156 -1.21875 5.976562 -1.191406 6.03125 -1.140625 C 6.082031 -1.097656 6.109375 -1.039062 6.109375 -0.96875 L 6.109375 -0.203125 C 6.109375 -0.140625 6.085938 -0.0859375 6.046875 -0.046875 C 6.003906 -0.015625 5.953125 0 5.890625 0 L 1.03125 0 C 0.894531 0 0.828125 -0.0664062 0.828125 -0.203125 L 0.828125 -6.703125 C 0.828125 -6.835938 0.894531 -6.90625 1.03125 -6.90625 L 5.796875 -6.90625 C 5.859375 -6.90625 5.90625 -6.882812 5.9375 -6.84375 C 5.976562 -6.8125 6 -6.765625 6 -6.703125 L 6 -5.890625 C 6 -5.753906 5.929688 -5.6875 5.796875 -5.6875 L 2.109375 -5.6875 L 2.109375 -3.78125 L 5 -3.78125 C 5.070312 -3.78125 5.128906 -3.757812 5.171875 -3.71875 C 5.210938 -3.6875 5.234375 -3.632812 5.234375 -3.5625 L 5.234375 -2.8125 C 5.234375 -2.75 5.210938 -2.695312 5.171875 -2.65625 C 5.128906 -2.625 5.070312 -2.609375 5 -2.609375 L 2.109375 -2.609375 L 2.109375 -1.21875 Z M 5.828125 -1.21875 "/></g></g></g><g fill="#000000" fill-opacity="1"><g transform="translate(146.633309, 256.52641)"><g><path d="M 5.390625 -1.65625 C 5.441406 -1.695312 5.5 -1.71875 5.5625 -1.71875 C 5.625 -1.71875 5.671875 -1.695312 5.703125 -1.65625 L 6.21875 -0.859375 C 6.238281 -0.828125 6.238281 -0.785156 6.21875 -0.734375 C 6.207031 -0.679688 6.175781 -0.632812 6.125 -0.59375 C 5.9375 -0.457031 5.722656 -0.332031 5.484375 -0.21875 C 5.253906 -0.113281 5.015625 -0.0351562 4.765625 0.015625 C 4.515625 0.078125 4.269531 0.109375 4.03125 0.109375 C 3.625 0.109375 3.238281 0.0507812 2.875 -0.0625 C 2.507812 -0.175781 2.175781 -0.34375 1.875 -0.5625 C 1.582031 -0.78125 1.320312 -1.035156 1.09375 -1.328125 C 0.875 -1.617188 0.703125 -1.941406 0.578125 -2.296875 C 0.460938 -2.660156 0.40625 -3.046875 0.40625 -3.453125 C 0.40625 -3.847656 0.460938 -4.222656 0.578125 -4.578125 C 0.703125 -4.941406 0.875 -5.269531 1.09375 -5.5625 C 1.320312 -5.863281 1.582031 -6.117188 1.875 -6.328125 C 2.175781 -6.546875 2.507812 -6.710938 2.875 -6.828125 C 3.238281 -6.953125 3.625 -7.015625 4.03125 -7.015625 C 4.257812 -7.015625 4.5 -6.984375 4.75 -6.921875 C 5.007812 -6.867188 5.257812 -6.785156 5.5 -6.671875 C 5.738281 -6.566406 5.953125 -6.4375 6.140625 -6.28125 C 6.203125 -6.238281 6.234375 -6.191406 6.234375 -6.140625 C 6.242188 -6.097656 6.238281 -6.0625 6.21875 -6.03125 L 5.703125 -5.25 C 5.671875 -5.207031 5.628906 -5.179688 5.578125 -5.171875 C 5.523438 -5.160156 5.46875 -5.179688 5.40625 -5.234375 C 5.207031 -5.398438 4.984375 -5.523438 4.734375 -5.609375 C 4.492188 -5.691406 4.257812 -5.734375 4.03125 -5.734375 C 3.707031 -5.734375 3.398438 -5.675781 3.109375 -5.5625 C 2.828125 -5.445312 2.578125 -5.28125 2.359375 -5.0625 C 2.148438 -4.851562 1.984375 -4.609375 1.859375 -4.328125 C 1.742188 -4.054688 1.6875 -3.765625 1.6875 -3.453125 C 1.6875 -3.128906 1.75 -2.828125 1.875 -2.546875 C 2 -2.273438 2.164062 -2.035156 2.375 -1.828125 C 2.59375 -1.617188 2.84375 -1.457031 3.125 -1.34375 C 3.40625 -1.226562 3.707031 -1.171875 4.03125 -1.171875 C 4.25 -1.171875 4.484375 -1.210938 4.734375 -1.296875 C 4.984375 -1.378906 5.203125 -1.5 5.390625 -1.65625 Z M 5.390625 -1.65625 "/></g></g></g><g fill="#000000" fill-opacity="1"><g transform="translate(160.772185, 256.52641)"><g><path d="M 6.671875 -6.921875 C 6.773438 -6.921875 6.828125 -6.867188 6.828125 -6.765625 L 6.828125 -0.140625 C 6.828125 -0.046875 6.773438 0 6.671875 0 L 5.6875 0 C 5.59375 0 5.546875 -0.046875 5.546875 -0.140625 L 5.546875 -2.203125 L 2.109375 -2.203125 L 2.109375 -0.140625 C 2.109375 -0.046875 2.054688 0 1.953125 0 L 0.984375 0 C 0.878906 0 0.828125 -0.046875 0.828125 -0.140625 L 0.828125 -6.765625 C 0.828125 -6.867188 0.878906 -6.921875 0.984375 -6.921875 L 1.953125 -6.921875 C 2.054688 -6.921875 2.109375 -6.867188 2.109375 -6.765625 L 2.109375 -3.328125 L 5.546875 -3.328125 L 5.546875 -6.765625 C 5.546875 -6.867188 5.59375 -6.921875 5.6875 -6.921875 Z M 6.671875 -6.921875 "/></g></g></g><g fill="#000000" fill-opacity="1"><g transform="translate(175.865156, 256.52641)"><g><path d="M 6.828125 -6.921875 C 6.921875 -6.921875 6.96875 -6.867188 6.96875 -6.765625 L 6.96875 -0.125 C 6.96875 -0.0507812 6.953125 0 6.921875 0.03125 C 6.890625 0.0703125 6.847656 0.09375 6.796875 0.09375 L 6.78125 0.09375 C 6.726562 0.09375 6.679688 0.0703125 6.640625 0.03125 C 6.597656 0 6.550781 -0.0351562 6.5 -0.078125 L 2.109375 -4.25 L 2.109375 -0.140625 C 2.109375 -0.046875 2.054688 0 1.953125 0 L 0.984375 0 C 0.878906 0 0.828125 -0.046875 0.828125 -0.140625 L 0.828125 -6.796875 C 0.828125 -6.859375 0.84375 -6.90625 0.875 -6.9375 C 0.90625 -6.976562 0.941406 -7 0.984375 -7 L 1.015625 -7 C 1.054688 -7 1.09375 -6.976562 1.125 -6.9375 C 1.164062 -6.90625 1.210938 -6.867188 1.265625 -6.828125 L 5.6875 -2.640625 L 5.6875 -6.765625 C 5.6875 -6.867188 5.738281 -6.921875 5.84375 -6.921875 Z M 6.828125 -6.921875 "/></g></g></g><g fill="#000000" fill-opacity="1"><g transform="translate(191.103512, 256.52641)"><g><path d="M 0.40625 -3.4375 C 0.40625 -3.84375 0.460938 -4.222656 0.578125 -4.578125 C 0.703125 -4.941406 0.875 -5.269531 1.09375 -5.5625 C 1.3125 -5.851562 1.566406 -6.109375 1.859375 -6.328125 C 2.160156 -6.546875 2.488281 -6.710938 2.84375 -6.828125 C 3.207031 -6.953125 3.59375 -7.015625 4 -7.015625 C 4.394531 -7.015625 4.769531 -6.953125 5.125 -6.828125 C 5.488281 -6.710938 5.816406 -6.546875 6.109375 -6.328125 C 6.410156 -6.109375 6.671875 -5.851562 6.890625 -5.5625 C 7.109375 -5.269531 7.273438 -4.941406 7.390625 -4.578125 C 7.515625 -4.222656 7.578125 -3.84375 7.578125 -3.4375 C 7.578125 -3.039062 7.515625 -2.660156 7.390625 -2.296875 C 7.273438 -1.941406 7.109375 -1.617188 6.890625 -1.328125 C 6.671875 -1.035156 6.410156 -0.78125 6.109375 -0.5625 C 5.816406 -0.34375 5.488281 -0.175781 5.125 -0.0625 C 4.769531 0.0507812 4.394531 0.109375 4 0.109375 C 3.59375 0.109375 3.207031 0.0507812 2.84375 -0.0625 C 2.488281 -0.175781 2.160156 -0.34375 1.859375 -0.5625 C 1.566406 -0.78125 1.3125 -1.035156 1.09375 -1.328125 C 0.875 -1.617188 0.703125 -1.941406 0.578125 -2.296875 C 0.460938 -2.660156 0.40625 -3.039062 0.40625 -3.4375 Z M 1.6875 -3.4375 C 1.6875 -3.113281 1.742188 -2.816406 1.859375 -2.546875 C 1.984375 -2.273438 2.148438 -2.035156 2.359375 -1.828125 C 2.566406 -1.617188 2.8125 -1.457031 3.09375 -1.34375 C 3.375 -1.226562 3.675781 -1.171875 4 -1.171875 C 4.320312 -1.171875 4.617188 -1.226562 4.890625 -1.34375 C 5.171875 -1.457031 5.414062 -1.617188 5.625 -1.828125 C 5.832031 -2.035156 5.992188 -2.273438 6.109375 -2.546875 C 6.234375 -2.816406 6.296875 -3.113281 6.296875 -3.4375 C 6.296875 -3.757812 6.234375 -4.0625 6.109375 -4.34375 C 5.992188 -4.625 5.832031 -4.867188 5.625 -5.078125 C 5.414062 -5.285156 5.171875 -5.445312 4.890625 -5.5625 C 4.609375 -5.675781 4.3125 -5.734375 4 -5.734375 C 3.675781 -5.734375 3.375 -5.675781 3.09375 -5.5625 C 2.8125 -5.445312 2.566406 -5.285156 2.359375 -5.078125 C 2.148438 -4.867188 1.984375 -4.625 1.859375 -4.34375 C 1.742188 -4.0625 1.6875 -3.757812 1.6875 -3.4375 Z M 1.6875 -3.4375 "/></g></g></g><g fill="#000000" fill-opacity="1"><g transform="translate(206.528144, 256.52641)"><g><path d="M 5.234375 -1.125 C 5.328125 -1.125 5.375 -1.070312 5.375 -0.96875 L 5.375 -0.15625 C 5.375 -0.0507812 5.328125 0 5.234375 0 L 0.984375 0 C 0.878906 0 0.828125 -0.0507812 0.828125 -0.15625 L 0.828125 -6.765625 C 0.828125 -6.867188 0.878906 -6.921875 0.984375 -6.921875 L 1.953125 -6.921875 C 2.054688 -6.921875 2.109375 -6.867188 2.109375 -6.765625 L 2.109375 -1.125 Z M 5.234375 -1.125 "/></g></g></g><g fill="#000000" fill-opacity="1"><g transform="translate(219.526652, 256.52641)"><g><path d="M 0.40625 -3.4375 C 0.40625 -3.84375 0.460938 -4.222656 0.578125 -4.578125 C 0.703125 -4.941406 0.875 -5.269531 1.09375 -5.5625 C 1.3125 -5.851562 1.566406 -6.109375 1.859375 -6.328125 C 2.160156 -6.546875 2.488281 -6.710938 2.84375 -6.828125 C 3.207031 -6.953125 3.59375 -7.015625 4 -7.015625 C 4.394531 -7.015625 4.769531 -6.953125 5.125 -6.828125 C 5.488281 -6.710938 5.816406 -6.546875 6.109375 -6.328125 C 6.410156 -6.109375 6.671875 -5.851562 6.890625 -5.5625 C 7.109375 -5.269531 7.273438 -4.941406 7.390625 -4.578125 C 7.515625 -4.222656 7.578125 -3.84375 7.578125 -3.4375 C 7.578125 -3.039062 7.515625 -2.660156 7.390625 -2.296875 C 7.273438 -1.941406 7.109375 -1.617188 6.890625 -1.328125 C 6.671875 -1.035156 6.410156 -0.78125 6.109375 -0.5625 C 5.816406 -0.34375 5.488281 -0.175781 5.125 -0.0625 C 4.769531 0.0507812 4.394531 0.109375 4 0.109375 C 3.59375 0.109375 3.207031 0.0507812 2.84375 -0.0625 C 2.488281 -0.175781 2.160156 -0.34375 1.859375 -0.5625 C 1.566406 -0.78125 1.3125 -1.035156 1.09375 -1.328125 C 0.875 -1.617188 0.703125 -1.941406 0.578125 -2.296875 C 0.460938 -2.660156 0.40625 -3.039062 0.40625 -3.4375 Z M 1.6875 -3.4375 C 1.6875 -3.113281 1.742188 -2.816406 1.859375 -2.546875 C 1.984375 -2.273438 2.148438 -2.035156 2.359375 -1.828125 C 2.566406 -1.617188 2.8125 -1.457031 3.09375 -1.34375 C 3.375 -1.226562 3.675781 -1.171875 4 -1.171875 C 4.320312 -1.171875 4.617188 -1.226562 4.890625 -1.34375 C 5.171875 -1.457031 5.414062 -1.617188 5.625 -1.828125 C 5.832031 -2.035156 5.992188 -2.273438 6.109375 -2.546875 C 6.234375 -2.816406 6.296875 -3.113281 6.296875 -3.4375 C 6.296875 -3.757812 6.234375 -4.0625 6.109375 -4.34375 C 5.992188 -4.625 5.832031 -4.867188 5.625 -5.078125 C 5.414062 -5.285156 5.171875 -5.445312 4.890625 -5.5625 C 4.609375 -5.675781 4.3125 -5.734375 4 -5.734375 C 3.675781 -5.734375 3.375 -5.675781 3.09375 -5.5625 C 2.8125 -5.445312 2.566406 -5.285156 2.359375 -5.078125 C 2.148438 -4.867188 1.984375 -4.625 1.859375 -4.34375 C 1.742188 -4.0625 1.6875 -3.757812 1.6875 -3.4375 Z M 1.6875 -3.4375 "/></g></g></g><g fill="#000000" fill-opacity="1"><g transform="translate(234.951284, 256.52641)"><g><path d="M 6.25 -3.515625 C 6.34375 -3.515625 6.390625 -3.460938 6.390625 -3.359375 L 6.390625 -0.765625 C 6.390625 -0.722656 6.378906 -0.679688 6.359375 -0.640625 C 6.347656 -0.597656 6.320312 -0.566406 6.28125 -0.546875 C 6.15625 -0.453125 6.003906 -0.363281 5.828125 -0.28125 C 5.648438 -0.207031 5.457031 -0.140625 5.25 -0.078125 C 5.050781 -0.015625 4.84375 0.03125 4.625 0.0625 C 4.414062 0.09375 4.21875 0.109375 4.03125 0.109375 C 3.625 0.109375 3.238281 0.0507812 2.875 -0.0625 C 2.507812 -0.175781 2.175781 -0.34375 1.875 -0.5625 C 1.570312 -0.78125 1.3125 -1.035156 1.09375 -1.328125 C 0.875 -1.617188 0.703125 -1.941406 0.578125 -2.296875 C 0.460938 -2.660156 0.40625 -3.046875 0.40625 -3.453125 C 0.40625 -3.847656 0.460938 -4.222656 0.578125 -4.578125 C 0.703125 -4.941406 0.875 -5.269531 1.09375 -5.5625 C 1.3125 -5.863281 1.570312 -6.117188 1.875 -6.328125 C 2.175781 -6.546875 2.507812 -6.710938 2.875 -6.828125 C 3.238281 -6.953125 3.625 -7.015625 4.03125 -7.015625 C 4.257812 -7.015625 4.5 -6.988281 4.75 -6.9375 C 5.007812 -6.882812 5.257812 -6.804688 5.5 -6.703125 C 5.738281 -6.597656 5.953125 -6.46875 6.140625 -6.3125 C 6.191406 -6.269531 6.21875 -6.222656 6.21875 -6.171875 C 6.226562 -6.117188 6.21875 -6.070312 6.1875 -6.03125 L 5.6875 -5.265625 C 5.65625 -5.222656 5.613281 -5.195312 5.5625 -5.1875 C 5.507812 -5.1875 5.460938 -5.207031 5.421875 -5.25 C 5.285156 -5.363281 5.132812 -5.457031 4.96875 -5.53125 C 4.8125 -5.601562 4.648438 -5.65625 4.484375 -5.6875 C 4.328125 -5.71875 4.175781 -5.734375 4.03125 -5.734375 C 3.695312 -5.734375 3.390625 -5.675781 3.109375 -5.5625 C 2.828125 -5.445312 2.582031 -5.285156 2.375 -5.078125 C 2.164062 -4.867188 2 -4.625 1.875 -4.34375 C 1.757812 -4.070312 1.703125 -3.773438 1.703125 -3.453125 C 1.703125 -3.128906 1.757812 -2.828125 1.875 -2.546875 C 1.988281 -2.265625 2.148438 -2.015625 2.359375 -1.796875 C 2.566406 -1.585938 2.8125 -1.421875 3.09375 -1.296875 C 3.375 -1.171875 3.6875 -1.109375 4.03125 -1.109375 C 4.144531 -1.109375 4.273438 -1.125 4.421875 -1.15625 C 4.566406 -1.1875 4.703125 -1.226562 4.828125 -1.28125 C 4.960938 -1.332031 5.078125 -1.390625 5.171875 -1.453125 L 5.171875 -2.4375 L 4 -2.4375 C 3.894531 -2.4375 3.84375 -2.488281 3.84375 -2.59375 L 3.84375 -3.359375 C 3.84375 -3.460938 3.894531 -3.515625 4 -3.515625 Z M 6.25 -3.515625 "/></g></g></g><g fill="#000000" fill-opacity="1"><g transform="translate(249.390019, 256.52641)"><g><path d="M 5.8125 -6.921875 C 5.875 -6.921875 5.921875 -6.894531 5.953125 -6.84375 C 5.984375 -6.800781 5.976562 -6.742188 5.9375 -6.671875 L 3.671875 -2.734375 L 3.671875 -0.203125 C 3.671875 -0.0664062 3.609375 0 3.484375 0 L 2.59375 0 C 2.457031 0 2.390625 -0.0664062 2.390625 -0.203125 L 2.390625 -2.734375 L 0.125 -6.671875 C 0.101562 -6.753906 0.101562 -6.816406 0.125 -6.859375 C 0.15625 -6.898438 0.207031 -6.921875 0.28125 -6.921875 L 1.3125 -6.921875 C 1.351562 -6.921875 1.394531 -6.898438 1.4375 -6.859375 C 1.488281 -6.828125 1.523438 -6.785156 1.546875 -6.734375 L 3.03125 -4.046875 L 4.53125 -6.75 C 4.59375 -6.863281 4.675781 -6.921875 4.78125 -6.921875 Z M 5.8125 -6.921875 "/></g></g></g><g clip-path="url(#a16286c990)"><path fill="#51bbbf" d="M 138.6875 192.925781 C 138.6875 193.695312 138.609375 194.460938 138.460938 195.21875 C 138.308594 195.976562 138.085938 196.710938 137.789062 197.425781 C 137.492188 198.140625 137.128906 198.816406 136.699219 199.457031 C 136.269531 200.101562 135.78125 200.695312 135.234375 201.242188 C 134.6875 201.789062 134.09375 202.273438 133.449219 202.703125 C 132.804688 203.132812 132.125 203.496094 131.410156 203.789062 C 130.695312 204.085938 129.960938 204.308594 129.199219 204.460938 C 128.441406 204.609375 127.675781 204.6875 126.902344 204.6875 C 126.128906 204.6875 125.363281 204.609375 124.601562 204.460938 C 123.84375 204.308594 123.105469 204.085938 122.390625 203.789062 C 121.675781 203.496094 121 203.132812 120.355469 202.703125 C 119.710938 202.273438 119.117188 201.789062 118.570312 201.242188 C 118.023438 200.695312 117.535156 200.101562 117.105469 199.457031 C 116.675781 198.816406 116.3125 198.140625 116.015625 197.425781 C 115.71875 196.710938 115.496094 195.976562 115.34375 195.21875 C 115.191406 194.460938 115.117188 193.695312 115.117188 192.925781 C 115.117188 192.152344 115.191406 191.386719 115.34375 190.628906 C 115.496094 189.871094 115.71875 189.136719 116.015625 188.421875 C 116.3125 187.710938 116.675781 187.03125 117.105469 186.390625 C 117.535156 185.746094 118.023438 185.152344 118.570312 184.605469 C 119.117188 184.0625 119.710938 183.574219 120.355469 183.144531 C 121 182.714844 121.675781 182.351562 122.390625 182.058594 C 123.105469 181.761719 123.84375 181.539062 124.601562 181.386719 C 125.363281 181.238281 126.128906 181.160156 126.902344 181.160156 C 127.675781 181.160156 128.441406 181.238281 129.199219 181.386719 C 129.960938 181.539062 130.695312 181.761719 131.410156 182.058594 C 132.125 182.351562 132.804688 182.714844 133.449219 183.144531 C 134.09375 183.574219 134.6875 184.0625 135.234375 184.605469 C 135.78125 185.152344 136.269531 185.746094 136.699219 186.390625 C 137.128906 187.03125 137.492188 187.710938 137.789062 188.421875 C 138.085938 189.136719 138.308594 189.871094 138.460938 190.628906 C 138.609375 191.386719 138.6875 192.152344 138.6875 192.925781 Z M 138.6875 192.925781 " fill-opacity="1" fill-rule="nonzero"/></g><g clip-path="url(#80b29ffc6e)"><path fill="#0085c2" d="M 259.945312 193.027344 C 259.945312 193.808594 259.871094 194.578125 259.71875 195.34375 C 259.566406 196.109375 259.339844 196.851562 259.042969 197.570312 C 258.742188 198.289062 258.378906 198.972656 257.945312 199.621094 C 257.511719 200.269531 257.019531 200.871094 256.46875 201.421875 C 255.914062 201.972656 255.316406 202.464844 254.667969 202.894531 C 254.019531 203.328125 253.332031 203.695312 252.613281 203.992188 C 251.890625 204.292969 251.148438 204.515625 250.382812 204.667969 C 249.617188 204.820312 248.84375 204.894531 248.066406 204.894531 C 247.285156 204.894531 246.511719 204.820312 245.746094 204.667969 C 244.980469 204.515625 244.238281 204.292969 243.519531 203.992188 C 242.796875 203.695312 242.113281 203.328125 241.464844 202.894531 C 240.816406 202.464844 240.214844 201.972656 239.664062 201.421875 C 239.113281 200.871094 238.621094 200.269531 238.1875 199.621094 C 237.753906 198.972656 237.386719 198.289062 237.089844 197.570312 C 236.789062 196.851562 236.5625 196.109375 236.410156 195.34375 C 236.261719 194.578125 236.183594 193.808594 236.183594 193.027344 C 236.183594 192.25 236.261719 191.476562 236.410156 190.714844 C 236.5625 189.949219 236.789062 189.207031 237.089844 188.488281 C 237.386719 187.769531 237.753906 187.082031 238.1875 186.4375 C 238.621094 185.789062 239.113281 185.1875 239.664062 184.636719 C 240.214844 184.085938 240.816406 183.59375 241.464844 183.160156 C 242.113281 182.730469 242.796875 182.363281 243.519531 182.066406 C 244.238281 181.765625 244.980469 181.542969 245.746094 181.390625 C 246.511719 181.238281 247.285156 181.160156 248.066406 181.160156 C 248.84375 181.160156 249.617188 181.238281 250.382812 181.390625 C 251.148438 181.542969 251.890625 181.765625 252.613281 182.066406 C 253.332031 182.363281 254.019531 182.730469 254.667969 183.160156 C 255.316406 183.59375 255.914062 184.085938 256.46875 184.636719 C 257.019531 185.1875 257.511719 185.789062 257.945312 186.4375 C 258.378906 187.082031 258.742188 187.769531 259.042969 188.488281 C 259.339844 189.207031 259.566406 189.949219 259.71875 190.714844 C 259.871094 191.476562 259.945312 192.25 259.945312 193.027344 Z M 259.945312 193.027344 " fill-opacity="1" fill-rule="nonzero"/></g></svg>